<mxfile host="65bd71144e">
    <diagram id="T9uuaTeBy4bPSP1g8a4x" name="Page-1">
        <mxGraphModel dx="1170" dy="825" grid="1" gridSize="10" guides="1" tooltips="1" connect="1" arrows="1" fold="1" page="1" pageScale="1" pageWidth="827" pageHeight="1169" background="#FFFFFF" math="0" shadow="0">
            <root>
                <mxCell id="0"/>
                <mxCell id="1" parent="0"/>
                <mxCell id="141" value="" style="rounded=0;whiteSpace=wrap;html=1;strokeColor=none;fontColor=#6C8EBF;fillColor=default;" parent="1" vertex="1">
                    <mxGeometry x="50" y="270" width="420" height="320" as="geometry"/>
                </mxCell>
                <mxCell id="121" value="Pre-project" style="rounded=0;whiteSpace=wrap;html=1;fillColor=#f5f5f5;fontColor=#333333;strokeColor=#666666;" parent="1" vertex="1">
                    <mxGeometry x="69.98" y="280" width="80" height="40" as="geometry"/>
                </mxCell>
                <mxCell id="142" value="Post-project" style="rounded=0;whiteSpace=wrap;html=1;fillColor=#f5f5f5;fontColor=#333333;strokeColor=#666666;" vertex="1" parent="1">
                    <mxGeometry x="370" y="280" width="80" height="40" as="geometry"/>
                </mxCell>
                <mxCell id="143" value="&lt;br&gt;Feasibility" style="triangle;whiteSpace=wrap;html=1;rotation=0;direction=north;" vertex="1" parent="1">
                    <mxGeometry x="200" y="280" width="120" height="60" as="geometry"/>
                </mxCell>
                <mxCell id="146" value="Business study" style="shape=trapezoid;perimeter=trapezoidPerimeter;whiteSpace=wrap;html=1;fixedSize=1;size=30;" vertex="1" parent="1">
                    <mxGeometry x="170" y="340" width="180" height="30" as="geometry"/>
                </mxCell>
                <mxCell id="154" value="" style="group" vertex="1" connectable="0" parent="1">
                    <mxGeometry x="215" y="520" width="90.00000000000003" height="60" as="geometry"/>
                </mxCell>
                <mxCell id="152" value="" style="endArrow=block;html=1;edgeStyle=orthogonalEdgeStyle;curved=1;endFill=1;endSize=3;" edge="1" parent="154">
                    <mxGeometry width="50" height="50" relative="1" as="geometry">
                        <mxPoint y="30" as="sourcePoint"/>
                        <mxPoint y="30" as="targetPoint"/>
                        <Array as="points">
                            <mxPoint/>
                            <mxPoint x="90.00000000000003"/>
                            <mxPoint x="90.00000000000003" y="60"/>
                            <mxPoint y="60"/>
                        </Array>
                    </mxGeometry>
                </mxCell>
                <mxCell id="153" value="Design &amp;amp; build iteration&amp;nbsp;" style="rounded=0;whiteSpace=wrap;html=1;fillColor=none;strokeColor=none;" vertex="1" parent="154">
                    <mxGeometry y="10" width="90" height="40" as="geometry"/>
                </mxCell>
                <mxCell id="155" value="" style="group" vertex="1" connectable="0" parent="1">
                    <mxGeometry x="360" y="410" width="100" height="60" as="geometry"/>
                </mxCell>
                <mxCell id="148" value="" style="endArrow=block;html=1;edgeStyle=orthogonalEdgeStyle;curved=1;endFill=1;endSize=3;" edge="1" parent="155">
                    <mxGeometry width="50" height="50" relative="1" as="geometry">
                        <mxPoint x="3.157967714489334e-14" y="30" as="sourcePoint"/>
                        <mxPoint y="30" as="targetPoint"/>
                        <Array as="points">
                            <mxPoint/>
                            <mxPoint x="100"/>
                            <mxPoint x="100" y="60"/>
                            <mxPoint y="60"/>
                        </Array>
                    </mxGeometry>
                </mxCell>
                <mxCell id="151" value="Implementation" style="rounded=0;whiteSpace=wrap;html=1;fillColor=none;strokeColor=none;" vertex="1" parent="155">
                    <mxGeometry y="10" width="100" height="40" as="geometry"/>
                </mxCell>
                <mxCell id="156" value="" style="group" vertex="1" connectable="0" parent="1">
                    <mxGeometry x="60" y="409.97" width="99.97" height="60" as="geometry"/>
                </mxCell>
                <mxCell id="147" value="" style="endArrow=block;html=1;edgeStyle=orthogonalEdgeStyle;curved=1;endFill=1;endSize=3;" edge="1" parent="156">
                    <mxGeometry width="50" height="50" relative="1" as="geometry">
                        <mxPoint x="-0.03332333333330303" y="29.970000000000027" as="sourcePoint"/>
                        <mxPoint y="30.029999999999973" as="targetPoint"/>
                        <Array as="points">
                            <mxPoint/>
                            <mxPoint x="99.97000000000001"/>
                            <mxPoint x="99.97000000000001" y="60"/>
                            <mxPoint y="60"/>
                        </Array>
                    </mxGeometry>
                </mxCell>
                <mxCell id="150" value="Functional model iteration" style="rounded=0;whiteSpace=wrap;html=1;fillColor=none;strokeColor=none;" vertex="1" parent="156">
                    <mxGeometry y="10" width="99.97000000000001" height="40" as="geometry"/>
                </mxCell>
                <mxCell id="157" value="" style="endArrow=none;startArrow=block;html=1;endSize=3;curved=1;startSize=3;endFill=0;startFill=1;" edge="1" parent="1">
                    <mxGeometry width="50" height="50" relative="1" as="geometry">
                        <mxPoint x="170" y="440" as="sourcePoint"/>
                        <mxPoint x="350" y="440" as="targetPoint"/>
                    </mxGeometry>
                </mxCell>
                <mxCell id="158" value="" style="endArrow=none;startArrow=block;html=1;endSize=3;curved=1;startSize=3;endFill=0;startFill=1;" edge="1" parent="1">
                    <mxGeometry width="50" height="50" relative="1" as="geometry">
                        <mxPoint x="210" y="520" as="sourcePoint"/>
                        <mxPoint x="160" y="470" as="targetPoint"/>
                    </mxGeometry>
                </mxCell>
                <mxCell id="159" value="" style="endArrow=none;startArrow=block;html=1;endSize=3;curved=1;startSize=3;endFill=0;startFill=1;" edge="1" parent="1">
                    <mxGeometry width="50" height="50" relative="1" as="geometry">
                        <mxPoint x="350" y="460" as="sourcePoint"/>
                        <mxPoint x="300" y="520" as="targetPoint"/>
                    </mxGeometry>
                </mxCell>
                <mxCell id="160" value="" style="endArrow=none;startArrow=block;html=1;endSize=3;curved=1;startSize=3;endFill=0;startFill=1;" edge="1" parent="1">
                    <mxGeometry width="50" height="50" relative="1" as="geometry">
                        <mxPoint x="350" y="380" as="sourcePoint"/>
                        <mxPoint x="360" y="410" as="targetPoint"/>
                    </mxGeometry>
                </mxCell>
                <mxCell id="161" value="" style="endArrow=none;startArrow=block;html=1;endSize=3;curved=1;startSize=3;endFill=0;startFill=1;" edge="1" parent="1">
                    <mxGeometry width="50" height="50" relative="1" as="geometry">
                        <mxPoint x="170" y="380" as="sourcePoint"/>
                        <mxPoint x="160" y="410" as="targetPoint"/>
                    </mxGeometry>
                </mxCell>
                <mxCell id="162" value="" style="endArrow=none;startArrow=block;html=1;endSize=3;curved=1;startSize=3;endFill=0;startFill=1;" edge="1" parent="1">
                    <mxGeometry width="50" height="50" relative="1" as="geometry">
                        <mxPoint x="310" y="530" as="sourcePoint"/>
                        <mxPoint x="360" y="470" as="targetPoint"/>
                    </mxGeometry>
                </mxCell>
                <mxCell id="164" value="" style="endArrow=block;html=1;fontSize=11;startSize=3;endSize=3;curved=1;endFill=1;" edge="1" parent="1">
                    <mxGeometry width="50" height="50" relative="1" as="geometry">
                        <mxPoint x="410" y="400" as="sourcePoint"/>
                        <mxPoint x="410" y="330" as="targetPoint"/>
                    </mxGeometry>
                </mxCell>
            </root>
        </mxGraphModel>
    </diagram>
</mxfile>